<svg width="110" height="111" viewBox="0 0 110 111" fill="none" xmlns="http://www.w3.org/2000/svg">
<g clip-path="url(#clip0_3_2)">
<path d="M98.75 47.648V91.433C98.75 94.9252 95.9766 97.7533 92.5547 97.7533H73.5667C70.1448 97.7533 67.3714 94.9252 67.3714 91.433V71.081C67.3714 67.6044 65.9769 64.4482 63.7464 62.1396C61.6605 60.0146 58.8206 58.6318 55.6487 58.4599C48.4768 58.0732 42.5897 64.4365 42.5897 71.7649V91.4289C42.5897 94.9211 39.8163 97.7492 36.3944 97.7492H17.4454C14.0235 97.7492 11.2501 94.9211 11.2501 91.4289V47.6399C11.2501 43.7297 13.0235 40.0383 16.0548 37.6477L47.4028 12.8937C51.8637 9.37029 58.1018 9.37029 62.5668 12.8937L93.9378 37.6517C96.973 40.0462 98.7464 43.7376 98.7464 47.6478L98.75 47.648Z" fill="black"/>
</g>
<defs>
<clipPath id="clip0_3_2">
<rect width="110" height="111" fill="white"/>
</clipPath>
</defs>
</svg>
