<svg width="90" height="66" viewBox="0 0 90 66" fill="none" xmlns="http://www.w3.org/2000/svg">
<g clip-path="url(#clip0_36_2)">
<path d="M81.5615 14.4459C81.9819 14.1095 82.1501 13.5208 82.1501 12.764C82.1501 12.0072 81.9819 11.4185 81.5615 11.0821C81.141 10.7457 80.6364 10.5776 79.8796 10.5776H77.1045V14.9504H79.8796C80.6364 14.9504 81.141 14.7822 81.5615 14.4459Z" fill="#CE181E"/>
<path d="M75.8438 53.2972H79.7121L77.7778 47.4106L75.8438 53.2972Z" fill="#CE181E"/>
<path d="M77.7776 38.8331C75.0025 38.8331 72.3956 39.7581 70.2932 41.2718L70.041 40.8513C71.5546 38.6649 72.3956 36.058 72.3956 33.1988C72.3956 25.6303 66.2567 19.4915 58.6883 19.4915H14.7073C10.9231 19.4915 7.47522 21.0052 5.0365 23.528C2.51369 26.0508 1 29.4146 1 33.1988C1 40.7672 7.13884 46.9061 14.7073 46.9061H58.6042C61.127 46.9061 63.3976 46.2333 65.4158 45.056C63.6498 47.4947 62.6407 50.3539 62.5566 53.4654H18.7438V55.3154H64.4067V53.7176C64.4067 52.0358 64.7431 50.438 65.3317 48.9243C65.1635 49.7652 65.0794 50.6062 65.0794 51.4471C65.0794 55.9041 67.4341 59.8565 70.8819 62.127H18.7438V63.9771H75.8434C76.5162 64.0612 77.1889 64.1453 77.8617 64.1453C84.8415 64.1453 90.4757 58.511 90.4757 51.5312C90.4757 44.5514 84.7574 38.8331 77.7776 38.8331ZM14.2027 44.0469C8.06387 44.0469 3.01825 39.0012 3.01825 32.8624C3.01825 26.7236 8.06387 21.6779 14.2027 21.6779C20.3416 21.6779 25.3872 26.7236 25.3872 32.8624C25.3872 39.0853 20.3416 44.0469 14.2027 44.0469ZM49.1857 44.0469C45.9061 41.2718 43.9719 37.2353 43.9719 32.9465C43.9719 28.6577 45.822 24.6212 49.1857 21.8461L50.363 23.2757C47.5038 25.7144 45.822 29.2464 45.822 33.0306C45.822 36.8148 47.5038 40.3467 50.363 42.7855L49.1857 44.0469ZM48.513 32.8624C48.513 26.7236 53.5586 21.6779 59.6974 21.6779C65.8363 21.6779 70.8819 26.7236 70.8819 32.8624C70.8819 39.0012 65.8363 44.0469 59.6974 44.0469C53.5586 44.0469 48.513 39.0853 48.513 32.8624ZM81.4777 58.9315L80.4686 55.9041H75.0025L73.9934 58.9315H70.7137L76.0116 44.0469H79.5435L84.8415 58.9315H81.4777Z" fill="#CE181E"/>
<path d="M61.8841 13.6049C63.3978 10.4094 65.8365 7.88656 68.8639 6.1206C66.5934 8.39113 65.1638 11.5867 65.1638 15.0345C65.1638 22.0143 70.7981 27.6486 77.7778 27.6486C84.7576 27.6486 90.3919 22.0143 90.3919 15.0345C90.3919 8.05475 84.7576 2.42047 77.7778 2.42047C77.1892 2.42047 76.6846 2.42047 76.096 2.50457H18.7441V4.35463H68.1912C64.9115 6.20469 62.2205 8.89569 60.4545 12.2594H18.7441V14.1095H61.6319L61.8841 13.6049ZM83.9167 9.14797C84.7576 9.90481 85.2622 11.0821 85.2622 12.6799C85.2622 14.4459 84.8417 15.7073 83.9167 16.38C83.0758 17.1369 81.8143 17.4732 80.2166 17.4732H77.1051V22.8552H73.9936V7.97066H80.3848C81.8984 7.97066 83.0758 8.39113 83.9167 9.14797Z" fill="#CE181E"/>
<path d="M9.99805 40.9354H13.0254V34.7124H19.6688V32.1055H13.0254V28.6577H20.5938V26.0508H9.99805V40.9354Z" fill="#CE181E"/>
<path d="M63.3137 36.4784L57.4271 26.0508H54.1475V40.9354H57.0066V30.4237L63.0614 40.9354H66.1729V26.0508H63.3137V36.4784Z" fill="#CE181E"/>
</g>
<defs>
<clipPath id="clip0_36_2">
<rect width="90" height="66" fill="white"/>
</clipPath>
</defs>
</svg>
