<svg width="343" height="66" viewBox="0 0 343 66" fill="none" xmlns="http://www.w3.org/2000/svg">
<path d="M103.258 15.8755V2.25228H110.826V5.53194H106.285V7.80247H109.985V10.8298H106.285V15.8755H103.258Z" fill="#CE181E"/>
<path d="M119.908 12.5958V15.8755H112.088V2.25228H119.824V5.53194H115.031V7.46609H119.067V10.4935H115.031V12.6799H119.908V12.5958Z" fill="#CE181E"/>
<path d="M121.338 15.8755V2.25228H125.543C126.804 2.25228 127.813 2.58866 128.57 3.17731C129.411 3.76597 130 4.60691 130.42 5.61603C130.841 6.62515 131.009 7.80247 131.009 9.06387C131.009 10.4094 130.757 11.6708 130.336 12.6799C129.916 13.689 129.243 14.53 128.402 15.0345C127.561 15.6232 126.552 15.8755 125.459 15.8755H121.338ZM128.066 9.06387C128.066 8.39112 127.981 7.71837 127.729 7.21381C127.561 6.70925 127.225 6.28878 126.888 5.9524C126.552 5.61603 126.047 5.53194 125.543 5.53194H124.365V12.6799H125.543C126.047 12.6799 126.552 12.5117 126.888 12.2594C127.225 11.9231 127.561 11.5026 127.729 10.998C127.981 10.3253 128.066 9.73662 128.066 9.06387Z" fill="#CE181E"/>
<path d="M140.343 12.5958V15.8755H132.522V2.25228H140.259V5.53194H135.55V7.46609H139.586V10.4935H135.55V12.6799H140.343V12.5958Z" fill="#CE181E"/>
<path d="M141.689 15.8755V2.25228H146.734C147.239 2.25228 147.743 2.42047 148.248 2.67275C148.669 2.92503 149.089 3.3455 149.425 3.76597C149.762 4.18644 150.014 4.691 150.182 5.27966C150.35 5.86831 150.434 6.37287 150.434 6.96153C150.434 7.46609 150.35 7.97065 150.266 8.47522C150.182 8.97978 149.93 9.40025 149.762 9.82072C149.509 10.2412 149.257 10.5776 148.921 10.8298L151.275 15.8755H147.912L145.978 11.6708H144.716V15.8755H141.689ZM144.716 8.39112H146.65C146.734 8.39112 146.903 8.30703 146.987 8.22294C147.071 8.13884 147.155 7.97065 147.239 7.71837C147.323 7.46609 147.323 7.21381 147.323 6.96153C147.323 6.62515 147.239 6.37287 147.155 6.20469C147.071 6.0365 146.987 5.86831 146.818 5.70012C146.65 5.61603 146.566 5.53194 146.398 5.53194H144.548V8.39112H144.716Z" fill="#CE181E"/>
<path d="M154.723 2.25228H158.087L161.619 15.8755H158.507L157.919 13.1845H154.807L154.219 15.8755H151.191L154.723 2.25228ZM157.498 10.7457L156.489 5.9524L155.48 10.7457H157.498Z" fill="#CE181E"/>
<path d="M170.028 5.53194H166.833V15.8755H163.805V5.53194H160.61V2.25228H170.028V5.53194Z" fill="#CE181E"/>
<path d="M171.122 15.8755V2.25228H174.149V15.8755H171.122Z" fill="#CE181E"/>
<path d="M181.045 15.9596C180.204 15.9596 179.447 15.7914 178.774 15.3709C178.101 14.9504 177.513 14.4459 177.008 13.7731C176.504 13.1004 176.167 12.3435 175.915 11.5026C175.663 10.6617 175.494 9.82072 175.494 8.89568C175.494 7.97065 175.663 7.12972 175.915 6.28878C176.167 5.44784 176.588 4.77509 177.092 4.10234C177.597 3.42959 178.185 2.92503 178.858 2.58866C179.531 2.25228 180.288 2 181.129 2C181.97 2 182.726 2.16819 183.399 2.58866C184.072 3.00912 184.661 3.51369 185.165 4.18644C185.67 4.85919 186.006 5.61603 186.258 6.45697C186.511 7.2979 186.679 8.13884 186.679 8.97978C186.679 9.90481 186.511 10.7457 186.258 11.5867C186.006 12.4276 185.586 13.1004 185.081 13.7731C184.577 14.4459 183.988 14.9504 183.315 15.2868C182.558 15.7914 181.801 15.9596 181.045 15.9596ZM178.522 9.06387C178.522 9.48434 178.606 9.9889 178.69 10.4094C178.774 10.8298 178.942 11.2503 179.195 11.5867C179.363 11.9231 179.699 12.1753 179.951 12.4276C180.288 12.5958 180.624 12.764 181.045 12.764C181.465 12.764 181.886 12.6799 182.138 12.4276C182.474 12.2594 182.726 11.9231 182.895 11.5867C183.063 11.2503 183.231 10.8298 183.315 10.4094C183.399 9.9889 183.483 9.56844 183.483 9.06387C183.483 8.6434 183.399 8.13884 183.315 7.71837C183.231 7.2979 183.063 6.87744 182.811 6.54106C182.642 6.20469 182.306 5.9524 182.054 5.78422C181.717 5.61603 181.381 5.53194 180.96 5.53194C180.54 5.53194 180.12 5.61603 179.867 5.86831C179.531 6.0365 179.279 6.37287 179.11 6.70925C178.942 7.04562 178.774 7.46609 178.69 7.88656C178.522 8.13884 178.522 8.6434 178.522 9.06387Z" fill="#CE181E"/>
<path d="M190.968 9.14797V15.8755H187.94V2.25228H190.295L194.752 9.23206V2.25228H197.779V15.8755H195.341L190.968 9.14797Z" fill="#CE181E"/>
<path d="M208.711 15.9596C207.87 15.9596 207.114 15.7914 206.441 15.3709C205.768 14.9504 205.18 14.4459 204.675 13.7731C204.17 13.1004 203.834 12.3435 203.582 11.5026C203.329 10.6617 203.161 9.82072 203.161 8.89568C203.161 7.97065 203.329 7.12972 203.582 6.28878C203.834 5.44784 204.254 4.77509 204.759 4.10234C205.264 3.42959 205.852 2.92503 206.525 2.58866C207.198 2.25228 207.955 2 208.796 2C209.636 2 210.393 2.16819 211.066 2.58866C211.739 3.00912 212.327 3.51369 212.832 4.18644C213.337 4.85919 213.673 5.61603 213.925 6.45697C214.178 7.2979 214.346 8.13884 214.346 8.97978C214.346 9.90481 214.178 10.7457 213.925 11.5867C213.673 12.4276 213.253 13.1004 212.748 13.7731C212.243 14.4459 211.655 14.9504 210.982 15.2868C210.309 15.7914 209.552 15.9596 208.711 15.9596ZM206.189 9.06387C206.189 9.48434 206.273 9.9889 206.357 10.4094C206.441 10.8298 206.609 11.2503 206.861 11.5867C207.114 11.9231 207.366 12.1753 207.618 12.4276C207.955 12.5958 208.291 12.764 208.711 12.764C209.132 12.764 209.552 12.6799 209.805 12.4276C210.141 12.2594 210.393 11.9231 210.562 11.5867C210.73 11.2503 210.898 10.8298 210.982 10.4094C211.066 9.9889 211.15 9.56844 211.15 9.06387C211.15 8.6434 211.066 8.13884 210.982 7.71837C210.898 7.2979 210.73 6.87744 210.477 6.54106C210.309 6.20469 209.973 5.9524 209.721 5.78422C209.384 5.61603 209.048 5.53194 208.627 5.53194C208.207 5.53194 207.786 5.61603 207.534 5.86831C207.198 6.0365 206.945 6.37287 206.777 6.70925C206.609 7.04562 206.441 7.46609 206.357 7.88656C206.273 8.13884 206.189 8.6434 206.189 9.06387Z" fill="#CE181E"/>
<path d="M215.607 15.8755V2.25228H223.175V5.53194H218.634V7.80247H222.335V10.8298H218.634V15.8755H215.607Z" fill="#CE181E"/>
<path d="M106.285 26.8917V33.6192H103.258V19.9961H105.612L110.069 26.9758V19.9961H113.097V33.6192H110.658L106.285 26.8917Z" fill="#CE181E"/>
<path d="M122.852 30.3396V33.6192H115.031V19.9961H122.768V23.2757H118.058V25.2099H122.095V28.2372H118.058V30.4237H122.852V30.3396Z" fill="#CE181E"/>
<path d="M124.281 33.6192V19.9961H129.075C129.579 19.9961 130.084 20.1643 130.588 20.4165C131.009 20.6688 131.429 21.0893 131.766 21.5097C132.102 21.9302 132.354 22.4348 132.522 23.0234C132.691 23.6121 132.775 24.1167 132.775 24.7053C132.775 25.5462 132.607 26.3031 132.354 26.9758C132.102 27.6486 131.597 28.3213 131.093 28.7418C130.588 29.1623 129.916 29.4146 129.159 29.4146H127.393V33.6192H124.281ZM127.309 26.219H128.906C128.991 26.219 129.159 26.1349 129.243 26.0508C129.327 25.9667 129.411 25.7985 129.495 25.6303C129.579 25.3781 129.579 25.1258 129.579 24.7894C129.579 24.3689 129.495 24.1167 129.411 23.8644C129.327 23.6121 129.243 23.528 129.075 23.4439C128.906 23.3598 128.822 23.3598 128.654 23.3598H127.14V26.219H127.309Z" fill="#CE181E"/>
<path d="M135.382 19.9961H138.745L142.277 33.6192H139.166L138.577 30.9282H135.466L134.877 33.6192H131.85L135.382 19.9961ZM138.073 28.4895L137.064 23.6962L136.054 28.4895H138.073Z" fill="#CE181E"/>
<path d="M143.202 33.6192V19.9961H146.23V30.3396H151.191V33.6192H143.202Z" fill="#CE181E"/>
<path d="M155.48 33.6192V19.9961H160.273C160.778 19.9961 161.283 20.1643 161.787 20.4165C162.208 20.6688 162.628 21.0893 162.964 21.5097C163.301 21.9302 163.553 22.4348 163.721 23.0234C163.889 23.6121 163.973 24.1167 163.973 24.7053C163.973 25.5462 163.805 26.3031 163.553 26.9758C163.301 27.6486 162.796 28.3213 162.292 28.7418C161.787 29.1623 161.114 29.4146 160.357 29.4146H158.592V33.6192H155.48ZM158.507 26.219H160.105C160.189 26.219 160.357 26.1349 160.442 26.0508C160.526 25.9667 160.61 25.7985 160.694 25.6303C160.778 25.3781 160.778 25.1258 160.778 24.7894C160.778 24.3689 160.694 24.1167 160.61 23.8644C160.526 23.6121 160.442 23.528 160.273 23.4439C160.105 23.3598 160.021 23.3598 159.853 23.3598H158.339V26.219H158.507Z" fill="#CE181E"/>
<path d="M165.151 33.6192V19.9961H170.196C170.701 19.9961 171.206 20.1643 171.71 20.4165C172.131 20.6688 172.551 21.0893 172.887 21.5097C173.224 21.9302 173.476 22.4348 173.644 23.0234C173.812 23.6121 173.897 24.1167 173.897 24.7053C173.897 25.2099 173.812 25.7144 173.728 26.219C173.644 26.7236 173.392 27.144 173.224 27.5645C172.972 27.985 172.719 28.3213 172.383 28.5736L174.737 33.6192H171.374L169.44 29.4146H168.178V33.6192H165.151ZM168.178 26.219H170.112C170.196 26.219 170.365 26.1349 170.449 26.0508C170.533 25.9667 170.617 25.7985 170.701 25.5462C170.785 25.294 170.785 25.0417 170.785 24.7894C170.785 24.453 170.701 24.2008 170.617 24.0326C170.533 23.8644 170.449 23.6962 170.281 23.528C170.112 23.4439 170.028 23.3598 169.86 23.3598H168.01V26.219H168.178Z" fill="#CE181E"/>
<path d="M175.663 33.6192V19.9961H178.69V33.6192H175.663Z" fill="#CE181E"/>
<path d="M183.567 26.8917V33.6192H180.54V19.9961H182.895L187.352 26.9758V19.9961H190.379V33.6192H187.94L183.567 26.8917Z" fill="#CE181E"/>
<path d="M200.891 23.2757H197.695V33.6192H194.668V23.2757H191.472V19.9961H200.891V23.2757Z" fill="#CE181E"/>
<path d="M209.805 30.3396V33.6192H201.984V19.9961H209.721V23.2757H205.011V25.2099H209.048V28.2372H205.011V30.4237H209.805V30.3396Z" fill="#CE181E"/>
<path d="M211.234 33.6192V19.9961H216.28C216.784 19.9961 217.289 20.1643 217.794 20.4165C218.214 20.6688 218.635 21.0893 218.971 21.5097C219.307 21.9302 219.56 22.4348 219.728 23.0234C219.896 23.6121 219.98 24.1167 219.98 24.7053C219.98 25.2099 219.896 25.7144 219.812 26.219C219.728 26.7236 219.475 27.144 219.307 27.5645C219.139 27.985 218.803 28.3213 218.466 28.5736L220.821 33.6192H217.457L215.523 29.4146H214.262V33.6192H211.234ZM214.262 26.219H216.196C216.28 26.219 216.448 26.1349 216.532 26.0508C216.616 25.9667 216.7 25.7985 216.784 25.5462C216.869 25.294 216.869 25.0417 216.869 24.7894C216.869 24.453 216.784 24.2008 216.7 24.0326C216.616 23.8644 216.532 23.6962 216.364 23.528C216.196 23.4439 216.112 23.3598 215.944 23.3598H214.262V26.219Z" fill="#CE181E"/>
<path d="M228.389 24.453C228.053 24.2007 227.717 23.9485 227.464 23.8644C227.212 23.7803 226.876 23.528 226.539 23.4439C226.203 23.2757 225.867 23.2757 225.53 23.2757C225.278 23.2757 225.026 23.3598 224.857 23.4439C224.689 23.528 224.605 23.6962 224.605 23.9485C224.605 24.2007 224.689 24.3689 224.857 24.5371C225.026 24.7053 225.278 24.7894 225.53 24.9576C225.782 25.1258 226.203 25.2099 226.623 25.3781C227.296 25.6303 227.885 25.8826 228.389 26.219C228.894 26.5554 229.23 26.9758 229.567 27.4804C229.819 27.985 229.987 28.6577 229.987 29.4987C229.987 30.3396 229.903 31.0123 229.651 31.5169C229.398 32.1056 229.062 32.526 228.726 32.8624C228.305 33.1988 227.885 33.4511 227.38 33.6192C226.876 33.7874 226.371 33.8715 225.867 33.8715C225.362 33.8715 224.773 33.7874 224.185 33.7033C223.596 33.5352 223.091 33.367 222.503 33.1147C221.914 32.8624 221.494 32.6101 220.989 32.2737L222.335 28.9941C222.755 29.3305 223.091 29.5827 223.428 29.7509C223.764 29.9191 224.185 30.0873 224.605 30.2555C225.026 30.4237 225.446 30.5078 225.867 30.5078C226.203 30.5078 226.455 30.4237 226.539 30.3396C226.623 30.2555 226.707 30.0873 226.707 29.9191C226.707 29.6668 226.623 29.4146 226.371 29.3305C226.119 29.1623 225.867 29.0782 225.446 28.91C225.11 28.7418 224.689 28.6577 224.185 28.4054C223.512 28.1531 223.007 27.8168 222.587 27.4804C222.166 27.144 221.83 26.7236 221.662 26.3031C221.494 25.7985 221.325 25.294 221.325 24.6212C221.325 23.6121 221.494 22.7712 221.914 22.0984C222.335 21.4257 222.839 20.9211 223.428 20.5847C224.016 20.2483 224.689 20.0802 225.446 20.0802C225.951 20.0802 226.539 20.1642 227.044 20.3324C227.548 20.5006 228.053 20.6688 228.473 20.9211C228.894 21.1734 229.314 21.3416 229.651 21.5938L228.389 24.453Z" fill="#CE181E"/>
<path d="M231.164 24.1166V19.6597H233.687V24.1166H231.164Z" fill="#CE181E"/>
<path d="M241.256 19.9961H244.619L248.151 33.6192H245.04L244.451 30.9282H241.34L240.751 33.6192H237.64L241.256 19.9961ZM243.947 28.4895L242.938 23.6962L241.928 28.4895H243.947Z" fill="#CE181E"/>
<path d="M255.72 24.453C255.383 24.2007 255.047 23.9485 254.795 23.8644C254.542 23.7803 254.206 23.528 253.87 23.4439C253.533 23.2757 253.197 23.2757 252.861 23.2757C252.608 23.2757 252.356 23.3598 252.188 23.4439C252.02 23.528 251.936 23.6962 251.936 23.9485C251.936 24.2007 252.02 24.3689 252.188 24.5371C252.356 24.7053 252.608 24.7894 252.861 24.9576C253.113 25.1258 253.533 25.2099 253.954 25.3781C254.627 25.6303 255.215 25.8826 255.72 26.219C256.224 26.5554 256.561 26.9758 256.897 27.4804C257.149 27.985 257.318 28.6577 257.318 29.4987C257.318 30.3396 257.233 31.0123 256.981 31.5169C256.729 32.1056 256.393 32.526 256.056 32.8624C255.636 33.1988 255.215 33.4511 254.711 33.6192C254.206 33.7874 253.702 33.8715 253.197 33.8715C252.692 33.8715 252.104 33.7874 251.515 33.7033C250.926 33.5352 250.422 33.367 249.833 33.1147C249.245 32.8624 248.824 32.6101 248.32 32.2737L249.665 28.9941C250.085 29.3305 250.422 29.5827 250.758 29.7509C251.095 29.9191 251.515 30.0873 251.936 30.2555C252.356 30.4237 252.776 30.5078 253.197 30.5078C253.533 30.5078 253.786 30.4237 253.87 30.3396C253.954 30.2555 254.038 30.0873 254.038 29.9191C254.038 29.6668 253.954 29.4146 253.702 29.3305C253.449 29.1623 253.197 29.0782 252.776 28.91C252.44 28.7418 252.02 28.6577 251.515 28.4054C250.842 28.1531 250.338 27.8168 249.917 27.4804C249.497 27.144 249.16 26.7236 248.992 26.3031C248.824 25.7985 248.656 25.294 248.656 24.6212C248.656 23.6121 248.824 22.7712 249.245 22.0984C249.665 21.4257 250.17 20.9211 250.758 20.5847C251.347 20.2483 252.02 20.0802 252.776 20.0802C253.281 20.0802 253.87 20.1642 254.374 20.3324C254.879 20.5006 255.383 20.6688 255.804 20.9211C256.224 21.1734 256.645 21.3416 256.981 21.5938L255.72 24.453Z" fill="#CE181E"/>
<path d="M265.307 24.453C264.97 24.2007 264.634 23.9485 264.381 23.8644C264.129 23.7803 263.793 23.528 263.456 23.4439C263.12 23.2757 262.784 23.2757 262.447 23.2757C262.195 23.2757 261.943 23.3598 261.775 23.4439C261.606 23.528 261.522 23.6962 261.522 23.9485C261.522 24.2007 261.606 24.3689 261.775 24.5371C261.943 24.7053 262.195 24.7894 262.447 24.9576C262.7 25.1258 263.12 25.2099 263.541 25.3781C264.213 25.6303 264.802 25.8826 265.307 26.219C265.811 26.5554 266.147 26.9758 266.484 27.4804C266.736 27.985 266.904 28.6577 266.904 29.4987C266.904 30.3396 266.82 31.0123 266.568 31.5169C266.316 32.1056 265.979 32.526 265.643 32.8624C265.222 33.1988 264.802 33.4511 264.297 33.6192C263.793 33.7874 263.288 33.8715 262.784 33.8715C262.279 33.8715 261.69 33.7874 261.102 33.7033C260.513 33.5352 260.009 33.367 259.42 33.1147C258.831 32.8624 258.411 32.6101 257.906 32.2737L259.252 28.9941C259.672 29.3305 260.009 29.5827 260.345 29.7509C260.681 29.9191 261.102 30.0873 261.522 30.2555C261.943 30.4237 262.363 30.5078 262.784 30.5078C263.12 30.5078 263.372 30.4237 263.456 30.3396C263.541 30.2555 263.625 30.0873 263.625 29.9191C263.625 29.6668 263.541 29.4146 263.288 29.3305C263.036 29.1623 262.784 29.0782 262.363 28.91C262.027 28.7418 261.606 28.6577 261.102 28.4054C260.429 28.1531 259.924 27.8168 259.504 27.4804C259.084 27.144 258.747 26.7236 258.579 26.3031C258.411 25.7985 258.243 25.294 258.243 24.6212C258.243 23.6121 258.411 22.7712 258.831 22.0984C259.252 21.4257 259.756 20.9211 260.345 20.5847C260.934 20.2483 261.606 20.0802 262.363 20.0802C262.868 20.0802 263.456 20.1642 263.961 20.3324C264.466 20.5006 264.97 20.6688 265.391 20.9211C265.811 21.1734 266.232 21.3416 266.568 21.5938L265.307 24.453Z" fill="#CE181E"/>
<path d="M273.211 33.7033C272.37 33.7033 271.613 33.5351 270.941 33.1147C270.268 32.6942 269.679 32.1896 269.175 31.5169C268.67 30.8441 268.334 30.0873 268.082 29.2464C267.829 28.4054 267.661 27.5645 267.661 26.6395C267.661 25.7144 267.829 24.8735 268.082 24.0326C268.334 23.1916 268.754 22.5189 269.259 21.8461C269.763 21.1734 270.352 20.6688 271.025 20.3324C271.698 19.9961 272.454 19.7438 273.295 19.7438C274.136 19.7438 274.893 19.912 275.566 20.3324C276.239 20.7529 276.827 21.2575 277.332 21.9302C277.836 22.603 278.173 23.3598 278.425 24.2007C278.677 25.0417 278.846 25.8826 278.846 26.7236C278.846 27.6486 278.677 28.4895 278.425 29.3305C278.173 30.1714 277.752 30.8441 277.248 31.5169C276.743 32.1896 276.155 32.6942 275.482 33.0306C274.809 33.5351 274.052 33.7033 273.211 33.7033ZM270.688 26.8076C270.688 27.2281 270.773 27.7327 270.857 28.1531C270.941 28.5736 271.109 28.9941 271.361 29.3305C271.613 29.6668 271.866 29.9191 272.118 30.1714C272.454 30.3396 272.791 30.5078 273.211 30.5078C273.632 30.5078 274.052 30.4237 274.304 30.1714C274.641 30.0032 274.893 29.6668 275.061 29.3305C275.229 28.9941 275.398 28.5736 275.482 28.1531C275.566 27.7327 275.65 27.3122 275.65 26.8076C275.65 26.3872 275.566 25.8826 275.482 25.4621C275.398 25.0417 275.23 24.6212 274.977 24.2848C274.809 23.9485 274.473 23.6962 274.22 23.528C273.884 23.3598 273.548 23.2757 273.127 23.2757C272.707 23.2757 272.286 23.3598 272.034 23.6121C271.698 23.7803 271.445 24.1166 271.277 24.453C271.109 24.7894 270.941 25.2099 270.857 25.6303C270.688 25.9667 270.688 26.3872 270.688 26.8076Z" fill="#CE181E"/>
<path d="M279.518 26.6395C279.518 25.7985 279.686 24.9576 279.939 24.2007C280.191 23.3598 280.527 22.6871 281.032 22.0143C281.537 21.3416 282.125 20.837 282.798 20.4165C283.471 19.9961 284.312 19.8279 285.153 19.8279C286.246 19.8279 287.171 20.0802 287.928 20.6688C288.685 21.2575 289.273 21.9302 289.694 22.8552L287.339 24.8735C287.171 24.453 287.003 24.1167 286.75 23.8644C286.498 23.6121 286.246 23.4439 285.909 23.3598C285.573 23.2757 285.321 23.1916 285.069 23.1916C284.648 23.1916 284.228 23.2757 283.975 23.528C283.723 23.7803 283.387 24.0326 283.218 24.3689C283.05 24.7053 282.882 25.1258 282.798 25.5462C282.714 25.9667 282.63 26.3872 282.63 26.8077C282.63 27.3122 282.714 27.7327 282.798 28.1532C282.882 28.5736 283.05 28.9941 283.303 29.3305C283.555 29.6668 283.807 29.9191 284.143 30.0873C284.48 30.2555 284.816 30.3396 285.237 30.3396C285.489 30.3396 285.825 30.2555 286.078 30.1714C286.33 30.0873 286.666 29.9191 286.834 29.6668C287.003 29.4146 287.255 29.0782 287.339 28.6577L289.778 30.5078C289.525 31.1805 289.189 31.7692 288.685 32.1896C288.18 32.6101 287.591 33.0306 286.919 33.2829C286.246 33.5352 285.657 33.6192 284.984 33.6192C284.143 33.6192 283.387 33.4511 282.714 33.0306C282.041 32.6101 281.452 32.1056 280.948 31.4328C280.443 30.7601 280.107 30.0032 279.771 29.1623C279.602 28.4054 279.518 27.5645 279.518 26.6395Z" fill="#CE181E"/>
<path d="M290.871 33.6192V19.9961H293.898V33.6192H290.871Z" fill="#CE181E"/>
<path d="M298.271 19.9961H301.635L305.167 33.6192H302.055L301.467 30.9282H298.355L297.767 33.6192H294.655L298.271 19.9961ZM301.046 28.4895L300.037 23.6962L299.028 28.4895H301.046Z" fill="#CE181E"/>
<path d="M313.576 23.2757H310.381V33.6192H307.353V23.2757H304.158V19.9961H313.576V23.2757Z" fill="#CE181E"/>
<path d="M314.669 33.6192V19.9961H317.697V33.6192H314.669Z" fill="#CE181E"/>
<path d="M324.593 33.7033C323.752 33.7033 322.995 33.5351 322.322 33.1147C321.649 32.6942 321.061 32.1896 320.556 31.5169C320.051 30.8441 319.715 30.0873 319.463 29.2464C319.211 28.4054 319.042 27.5645 319.042 26.6395C319.042 25.7144 319.211 24.8735 319.463 24.0326C319.715 23.1916 320.136 22.5189 320.64 21.8461C321.145 21.1734 321.733 20.6688 322.406 20.3324C323.079 19.9961 323.836 19.7438 324.677 19.7438C325.518 19.7438 326.274 19.912 326.947 20.3324C327.62 20.7529 328.209 21.2575 328.713 21.9302C329.218 22.603 329.554 23.3598 329.806 24.2007C330.059 25.0417 330.227 25.8826 330.227 26.7236C330.227 27.6486 330.059 28.4895 329.806 29.3305C329.554 30.1714 329.134 30.8441 328.629 31.5169C328.124 32.1896 327.536 32.6942 326.863 33.0306C326.19 33.5351 325.433 33.7033 324.593 33.7033ZM322.07 26.8076C322.07 27.2281 322.154 27.7327 322.238 28.1531C322.322 28.5736 322.49 28.9941 322.742 29.3305C322.995 29.6668 323.247 29.9191 323.499 30.1714C323.836 30.3396 324.172 30.5078 324.593 30.5078C325.013 30.5078 325.433 30.4237 325.686 30.1714C326.022 30.0032 326.274 29.6668 326.443 29.3305C326.611 28.9941 326.779 28.5736 326.863 28.1531C326.947 27.7327 327.031 27.3122 327.031 26.8076C327.031 26.3872 326.947 25.8826 326.863 25.4621C326.779 25.0417 326.611 24.6212 326.358 24.2848C326.19 23.9485 325.854 23.6962 325.602 23.528C325.265 23.3598 324.929 23.2757 324.508 23.2757C324.088 23.2757 323.667 23.3598 323.415 23.6121C323.079 23.7803 322.827 24.1166 322.658 24.453C322.49 24.7894 322.322 25.2099 322.238 25.6303C322.154 25.9667 322.07 26.3872 322.07 26.8076Z" fill="#CE181E"/>
<path d="M334.516 26.8917V33.6192H331.488V19.9961H333.843L338.3 26.9758V19.9961H341.327V33.6192H338.888L334.516 26.8917Z" fill="#CE181E"/>
<path d="M81.5617 14.4459C81.9821 14.1095 82.1503 13.5208 82.1503 12.764C82.1503 12.0072 81.9821 11.4185 81.5617 11.0821C81.1412 10.7457 80.6366 10.5776 79.8798 10.5776H77.1047V14.9504H79.8798C80.6366 14.9504 81.1412 14.7822 81.5617 14.4459Z" fill="#CE181E"/>
<path d="M75.8433 53.2972H79.7116L77.7774 47.4106L75.8433 53.2972Z" fill="#CE181E"/>
<path d="M77.7775 38.8331C75.0024 38.8331 72.3955 39.7581 70.2931 41.2718L70.0409 40.8513C71.5545 38.6649 72.3955 36.058 72.3955 33.1988C72.3955 25.6303 66.2566 19.4915 58.6882 19.4915H14.7072C10.923 19.4915 7.47513 21.0052 5.03641 23.528C2.5136 26.0508 0.999908 29.4146 0.999908 33.1988C0.999908 40.7672 7.13875 46.9061 14.7072 46.9061H58.6041C61.1269 46.9061 63.3975 46.2333 65.4157 45.056C63.6497 47.4947 62.6406 50.3539 62.5565 53.4654H18.7437V55.3154H64.4066V53.7176C64.4066 52.0358 64.743 50.438 65.3316 48.9243C65.1634 49.7652 65.0793 50.6062 65.0793 51.4471C65.0793 55.9041 67.434 59.8565 70.8818 62.127H18.7437V63.9771H75.8433C76.5161 64.0612 77.1888 64.1453 77.8616 64.1453C84.8414 64.1453 90.4756 58.511 90.4756 51.5312C90.4756 44.5514 84.7573 38.8331 77.7775 38.8331ZM14.2026 44.0469C8.06378 44.0469 3.01816 39.0012 3.01816 32.8624C3.01816 26.7236 8.06378 21.6779 14.2026 21.6779C20.3415 21.6779 25.3871 26.7236 25.3871 32.8624C25.3871 39.0853 20.3415 44.0469 14.2026 44.0469ZM49.1856 44.0469C45.906 41.2718 43.9718 37.2353 43.9718 32.9465C43.9718 28.6577 45.8219 24.6212 49.1856 21.8461L50.3629 23.2757C47.5037 25.7144 45.8219 29.2464 45.8219 33.0306C45.8219 36.8148 47.5037 40.3467 50.3629 42.7855L49.1856 44.0469ZM48.5129 32.8624C48.5129 26.7236 53.5585 21.6779 59.6973 21.6779C65.8362 21.6779 70.8818 26.7236 70.8818 32.8624C70.8818 39.0012 65.8362 44.0469 59.6973 44.0469C53.5585 44.0469 48.5129 39.0853 48.5129 32.8624ZM81.4776 58.9315L80.4685 55.9041H75.0024L73.9933 58.9315H70.7136L76.0115 44.0469H79.5434L84.8414 58.9315H81.4776Z" fill="#CE181E"/>
<path d="M61.8837 13.6049C63.3974 10.4094 65.8361 7.88656 68.8635 6.1206C66.593 8.39113 65.1634 11.5867 65.1634 15.0345C65.1634 22.0143 70.7977 27.6486 77.7774 27.6486C84.7572 27.6486 90.3915 22.0143 90.3915 15.0345C90.3915 8.05475 84.7572 2.42047 77.7774 2.42047C77.1888 2.42047 76.6842 2.42047 76.0956 2.50457H18.7437V4.35463H68.1908C64.9111 6.20469 62.2201 8.89569 60.4541 12.2594H18.7437V14.1095H61.6315L61.8837 13.6049ZM83.9163 9.14797C84.7572 9.90481 85.2618 11.0821 85.2618 12.6799C85.2618 14.4459 84.8413 15.7073 83.9163 16.38C83.0754 17.1369 81.8139 17.4732 80.2162 17.4732H77.1047V22.8552H73.9932V7.97066H80.3844C81.898 7.97066 83.0754 8.39113 83.9163 9.14797Z" fill="#CE181E"/>
<path d="M9.99792 40.9354H13.0253V34.7124H19.6687V32.1055H13.0253V28.6577H20.5937V26.0508H9.99792V40.9354Z" fill="#CE181E"/>
<path d="M63.3134 36.4784L57.4268 26.0508H54.1472V40.9354H57.0063V30.4237L63.0611 40.9354H66.1726V26.0508H63.3134V36.4784Z" fill="#CE181E"/>
<path d="M119.152 45.2242V58.3428H116.461V49.5971H110.154C109.397 49.5971 108.724 49.8493 108.304 50.3539C107.799 50.8585 107.631 51.4471 107.631 52.288C107.631 53.0449 107.883 53.7176 108.304 54.1381C108.808 54.6427 109.397 54.895 110.154 54.895C110.91 54.895 111.583 54.6427 112.088 54.1381C112.592 53.6335 112.845 52.9608 112.845 52.204C112.845 51.2789 112.088 50.3539 110.574 49.4289H114.358C114.947 50.438 115.199 51.363 115.199 52.288C115.199 53.6335 114.695 54.8109 113.686 55.82C112.676 56.8291 111.499 57.3337 110.07 57.3337C108.724 57.3337 107.547 56.8291 106.538 55.82C105.528 54.8109 105.108 53.6335 105.108 52.288C105.108 50.8585 105.613 49.6811 106.538 48.672C107.463 47.6629 108.724 47.2424 110.154 47.2424H116.461V45.2242H104.099V43.2059H121.59V45.2242H119.152Z" fill="#2E3192"/>
<path d="M116.292 44.0469C115.283 43.5423 114.442 42.7855 113.685 41.7763C112.929 40.7672 112.424 40.0945 112.004 39.8422C111.247 39.2535 109.817 38.833 107.883 38.6649L109.985 36.8148C111.247 36.983 112.34 37.3194 113.097 37.908C113.601 38.3285 114.358 39.0853 115.367 40.2626C116.124 41.1877 117.133 42.0286 118.395 42.7014C117.554 42.9536 116.797 43.3741 116.292 44.0469Z" fill="#2E3192"/>
<path d="M131.009 45.2242V58.3428H128.15V55.9041C127.645 56.0723 127.056 56.2404 126.215 56.2404C123.02 56.2404 121.422 54.6427 121.422 51.5312V45.2242H120.161V43.2059H133.363V45.2242H131.009ZM128.234 45.2242H124.281V52.1199C124.281 52.6244 124.45 53.0449 124.87 53.3813C125.29 53.7176 125.711 53.8017 126.215 53.8017C127.477 53.8017 128.15 53.2972 128.15 52.204V45.2242H128.234Z" fill="#2E3192"/>
<path d="M136.307 45.2242V58.4269H133.616V45.2242H132.354V43.2059H138.661V45.2242H136.307Z" fill="#2E3192"/>
<path d="M154.723 45.2242V58.3428H152.032V49.3448C151.191 49.4289 150.519 49.7652 150.014 50.438C149.509 51.0266 149.173 51.7835 149.173 52.6244C149.173 53.0449 149.341 53.7176 149.762 54.6427L146.65 53.129C146.65 52.2039 146.734 51.4471 146.903 50.9425C146.314 49.9334 145.389 49.4289 144.212 49.4289C143.287 49.4289 142.53 49.7652 141.941 50.3539C141.352 50.9425 141.016 51.6994 141.016 52.6244C141.016 53.5495 141.352 54.3063 141.941 54.8949C142.53 55.4836 143.287 55.82 144.212 55.82C145.137 55.82 146.146 55.2313 147.155 54.054V57.5019C146.146 58.0905 145.137 58.3428 144.127 58.3428C142.53 58.3428 141.184 57.7541 140.091 56.5768C138.998 55.3995 138.409 54.054 138.409 52.4562C138.409 50.8584 138.998 49.513 140.175 48.4197C141.352 47.3265 142.698 46.7379 144.296 46.7379C145.809 46.7379 147.155 47.3265 148.332 48.4197V48.5038C149.341 47.4106 150.603 46.822 152.116 46.7379V45.1401H137.484V43.1218H157.078V45.1401H154.723V45.2242Z" fill="#2E3192"/>
<path d="M179.867 45.2242V58.3428H177.176V50.5221H174.99V53.129C174.99 54.6427 174.485 55.82 173.476 56.8291C172.467 57.8382 171.206 58.3428 169.776 58.3428C168.346 58.3428 167.169 57.8382 166.076 56.8291C165.067 55.82 164.562 54.6427 164.562 53.2131C164.562 51.7835 165.067 50.5221 166.076 49.4289C167.085 48.3356 168.346 47.8311 169.776 47.8311C170.533 47.8311 171.374 48.0834 172.299 48.5038V52.204C171.458 51.1107 170.617 50.6062 169.86 50.6062C169.103 50.6062 168.515 50.8585 168.01 51.363C167.506 51.8676 167.253 52.4562 167.253 53.2131C167.253 53.9699 167.506 54.5586 167.926 55.0631C168.431 55.4836 169.019 55.7359 169.776 55.7359C170.533 55.7359 171.122 55.4836 171.626 55.0631C172.131 54.6427 172.299 53.9699 172.299 53.2972V45.3924H163.553V43.3741H182.138V45.3924H179.867V45.2242ZM177.092 45.2242H174.906V48.2516H177.092V45.2242Z" fill="#2E3192"/>
<path d="M177.597 64.2293C176.167 64.2293 174.822 63.7248 173.728 62.7998C172.551 61.8747 171.794 60.5292 171.374 58.8474H173.897C174.149 59.6883 174.653 60.4451 175.326 61.0338C175.999 61.7065 176.84 62.0429 177.681 62.0429C178.354 62.0429 178.69 61.7906 178.69 61.202C178.69 61.0338 178.606 60.7815 178.438 60.6133C178.269 60.4451 178.101 60.361 177.933 60.361C177.429 60.361 177.008 60.9497 176.84 62.127L175.999 61.6224V59.0996C176.503 58.4269 177.176 58.0905 178.017 58.0905C178.858 58.0905 179.615 58.4269 180.204 59.0155C180.876 59.6042 181.213 60.361 181.213 61.202C181.213 62.127 180.876 62.8839 180.204 63.4725C179.531 64.0612 178.606 64.2293 177.597 64.2293Z" fill="#2E3192"/>
<path d="M191.64 45.2242V52.6244C191.136 51.363 190.547 50.438 190.043 50.0175C189.538 49.513 188.949 49.3448 188.193 49.3448C187.268 49.3448 186.511 49.6811 185.922 50.2698C185.333 50.8584 184.997 51.6153 184.997 52.5403C184.997 53.4654 185.333 54.2222 185.922 54.8109C186.511 55.3995 187.268 55.6518 188.193 55.6518C189.538 55.6518 190.547 54.979 191.052 53.7176V52.4562H193.659V60.1929H191.052V57.67C190.211 58.1746 189.202 58.4269 188.193 58.4269C186.511 58.4269 185.081 57.8382 183.988 56.745C182.895 55.5677 182.306 54.2222 182.306 52.5403C182.306 50.9425 182.895 49.513 184.072 48.4197C185.249 47.2424 186.595 46.7379 188.277 46.7379C188.529 46.7379 188.865 46.7379 189.118 46.7379V45.4765H181.213V43.4582H195.509V45.4765H191.64V45.2242Z" fill="#2E3192"/>
<path d="M186.427 60.2769H182.726L192.313 52.5403V55.2313L186.427 60.2769Z" fill="#2E3192"/>
<path d="M204.086 45.2242V51.6153C204.086 52.9608 203.75 54.1381 202.993 55.0631C202.236 56.0723 201.143 56.5768 199.882 56.5768C198.536 56.5768 197.527 56.0723 196.686 55.0631C195.929 54.1381 195.593 52.9608 195.593 51.6153V45.2242H194.331V43.2059H206.441V45.2242H204.086ZM201.311 45.2242H198.284V52.1199C198.284 52.6244 198.452 53.0449 198.704 53.5495C199.041 54.054 199.377 54.3063 199.882 54.3063C200.386 54.3063 200.723 54.054 201.059 53.5495C201.311 53.129 201.395 52.7085 201.395 52.1199V45.2242H201.311Z" fill="#2E3192"/>
<path d="M209.216 45.2242V58.4269H206.525V45.2242H205.264V43.2059H211.571V45.2242H209.216Z" fill="#2E3192"/>
<path d="M226.539 43.3741V43.2059H230.239V45.2242H228.305C228.726 45.8969 228.894 46.6538 228.894 47.4106C228.894 48.4197 228.558 49.4289 227.885 50.3539C228.726 51.363 229.146 52.4562 229.146 53.6335C229.146 55.0631 228.642 56.2404 227.633 57.2496C226.623 58.2587 225.362 58.7633 223.932 58.7633C222.587 58.7633 221.41 58.2587 220.401 57.2496C219.391 56.2404 218.887 55.0631 218.887 53.6335C218.887 53.2131 218.971 52.6244 219.139 52.0358H221.914C221.662 52.7085 221.494 53.2131 221.494 53.6335C221.494 54.3063 221.746 54.8949 222.251 55.3995C222.755 55.9041 223.344 56.1564 224.017 56.1564C224.689 56.1564 225.278 55.9041 225.783 55.3995C226.287 54.8949 226.539 54.3063 226.539 53.6335C226.539 52.9608 226.287 52.3721 225.783 51.8676C225.278 51.363 224.689 51.1107 224.017 51.1107C223.596 51.1107 223.092 51.1948 222.419 51.4471V48.7561C223.007 48.5879 223.596 48.5038 224.017 48.5038C224.605 48.5038 225.194 48.5879 225.698 48.8402C226.119 48.4197 226.287 47.9152 226.287 47.3265C226.287 46.7379 226.119 46.1492 225.698 45.8128C225.278 45.3924 224.773 45.2242 224.101 45.2242C222.671 45.2242 221.998 46.0651 221.914 47.8311H219.391C219.391 46.822 219.644 45.981 219.98 45.2242H217.962V43.2059H221.662V43.3741C222.419 42.8695 223.176 42.6173 224.017 42.6173C224.942 42.6173 225.783 42.8695 226.539 43.3741Z" fill="#2E3192"/>
<path d="M241.844 45.2242V58.3428H239.153V56.745C238.144 57.4178 236.799 57.7541 234.949 57.7541C233.519 57.7541 232.342 57.3337 231.417 56.4086C230.492 55.5677 229.987 54.3904 229.987 53.0449C229.987 52.204 230.323 51.363 231.08 50.6062C230.492 50.1016 230.239 49.4289 230.239 48.672C230.239 47.9152 230.492 47.3265 230.912 46.822C231.417 46.3174 232.005 45.981 232.762 45.8969V45.2242H228.978V43.2059H244.199V45.2242H241.844ZM239.153 45.2242H235.453V48.1675C234.78 47.8311 234.276 47.6629 233.939 47.6629C233.099 47.6629 232.678 47.9152 232.678 48.5038C232.678 48.7561 232.846 48.9243 233.183 49.1766C233.687 49.0084 234.192 48.9243 234.696 48.9243C235.285 48.9243 235.958 49.0925 236.631 49.3448V52.5403C235.79 51.9517 235.117 51.6994 234.696 51.6994C233.267 51.6994 232.51 52.204 232.51 53.2972C232.51 53.8858 232.762 54.3904 233.183 54.8109C233.603 55.2313 234.108 55.4836 234.696 55.4836C235.705 55.4836 236.546 55.3995 237.135 55.1472C237.724 54.895 238.396 54.4745 239.153 53.8858V45.2242Z" fill="#2E3192"/>
<path d="M247.058 45.2242V58.4269H244.367V45.2242H243.106V43.2059H249.413V45.2242H247.058Z" fill="#2E3192"/>
<path d="M244.199 44.0469C243.19 43.5423 242.349 42.7855 241.592 41.7763C240.835 40.7672 240.331 40.0945 239.91 39.8422C239.153 39.2535 237.724 38.833 235.79 38.6649L237.892 36.8148C239.153 36.983 240.247 37.3194 241.003 37.908C241.508 38.3285 242.265 39.0853 243.274 40.2626C244.031 41.1877 245.04 42.0286 246.301 42.7014C245.46 42.9536 244.703 43.3741 244.199 44.0469Z" fill="#2E3192"/>
<path d="M265.559 45.2242V58.3428H262.868V45.2242H259.084C260.093 46.7379 260.597 48.3356 260.597 50.1857C260.597 52.3721 259.924 54.2222 258.579 55.7359C257.149 57.3337 255.383 58.1746 253.281 58.1746C252.44 58.1746 251.599 58.0064 250.758 57.7541L248.656 52.8767C250.506 54.5586 252.104 55.3995 253.365 55.3995C254.711 55.3995 255.804 54.8108 256.729 53.7176C257.57 52.7085 257.99 51.5312 257.99 50.1016C257.99 48.0834 257.065 46.4856 255.215 45.3083H248.067V43.29H267.913V45.3083H265.559V45.2242Z" fill="#2E3192"/>
<path d="M290.619 45.2242V58.3428H287.928V50.5221H285.741V53.129C285.741 54.6427 285.237 55.82 284.228 56.8291C283.218 57.8382 281.957 58.3428 280.527 58.3428C279.098 58.3428 277.921 57.8382 276.827 56.8291C275.818 55.82 275.314 54.6427 275.314 53.2131C275.314 51.7835 275.818 50.5221 276.827 49.4289C277.836 48.3356 279.098 47.8311 280.527 47.8311C281.284 47.8311 282.125 48.0834 283.05 48.5038V52.204C282.209 51.1107 281.368 50.6062 280.612 50.6062C279.855 50.6062 279.266 50.8585 278.761 51.363C278.257 51.8676 278.005 52.4562 278.005 53.2131C278.005 53.9699 278.257 54.5586 278.677 55.0631C279.098 55.5677 279.771 55.7359 280.527 55.7359C281.284 55.7359 281.873 55.4836 282.378 55.0631C282.882 54.6427 283.05 53.9699 283.05 53.2972V45.3924H274.305V43.3741H292.889V45.3924H290.619V45.2242ZM287.844 45.2242H285.741V48.2516H287.928V45.2242H287.844Z" fill="#2E3192"/>
<path d="M303.485 45.2242V48.8402H297.178C296.505 48.8402 296.169 49.0925 296.169 49.5129C296.169 49.7652 296.253 49.9334 296.421 50.0175C297.178 49.6811 297.935 49.5129 298.776 49.5129C300.458 49.5129 301.971 50.1016 303.149 51.2789C304.326 52.4562 304.915 53.8858 304.915 55.5677C304.915 56.6609 304.662 57.67 304.158 58.5951H300.962C301.887 57.5019 302.308 56.4927 302.308 55.5677C302.308 54.6427 301.971 53.8017 301.299 53.129C300.626 52.4562 299.785 52.1199 298.86 52.1199C297.935 52.1199 297.094 52.4562 296.337 53.129C295.58 53.8017 295.244 54.6427 295.244 55.5677C295.244 56.3245 295.412 56.9973 295.833 57.5859C296.253 58.1746 296.926 58.6792 297.935 59.0155L295.664 61.0338C294.655 60.5292 293.898 59.6883 293.394 58.7633C292.889 57.7541 292.553 56.745 292.553 55.7359C292.553 54.2222 293.057 52.7926 294.151 51.6153C293.646 51.0266 293.478 50.3539 293.478 49.6811C293.478 48.7561 293.73 47.9993 294.319 47.4106C294.907 46.7379 295.58 46.4015 296.505 46.4015H300.71V45.3083H291.796V43.29H306.092V45.3083H303.485V45.2242Z" fill="#2E3192"/>
<path d="M309.035 45.2242V58.4269H306.344V45.2242H305.083V43.2059H311.39V45.2242H309.035Z" fill="#2E3192"/>
<path d="M326.359 45.2242V58.3428H323.752V52.288H320.724V52.1199C320.051 53.0449 319.126 53.7176 317.865 54.1381L322.827 58.3428H318.706L311.053 51.7835L312.904 49.9334L314.501 51.363C315.006 51.6994 315.51 51.8676 316.099 51.8676C317.024 51.8676 317.781 51.5312 318.37 50.9425C318.958 50.3539 319.211 49.597 319.211 48.5879C319.211 46.9901 318.622 45.8969 317.36 45.1401H310.297V43.1218H328.797V45.1401H326.359V45.2242ZM323.752 45.2242H320.808C321.481 46.1492 321.817 47.2424 321.817 48.5879C321.817 49.0084 321.817 49.5129 321.733 49.9334H323.836V45.2242H323.752Z" fill="#2E3192"/>
<path d="M326.611 42.5332C326.106 42.5332 325.602 42.365 325.265 42.0286C324.929 41.6922 324.761 41.2718 324.761 40.6831C324.761 40.1785 324.929 39.7581 325.265 39.3376C325.602 39.0012 326.022 38.833 326.527 38.833C327.031 38.833 327.536 39.0012 327.872 39.3376C328.209 39.674 328.377 40.1785 328.377 40.6831C328.377 41.1877 328.209 41.6081 327.872 41.9445C327.536 42.2809 327.115 42.5332 326.611 42.5332Z" fill="#2E3192"/>
<path d="M339.561 45.2242V58.4269H336.954V56.9132C336.113 57.3337 334.936 57.5019 333.675 57.5019C332.245 57.5019 330.984 56.9973 330.059 55.9041C329.05 54.895 328.545 53.6335 328.545 52.1199C328.545 50.7744 329.05 49.6811 329.975 48.7561C329.47 48.0834 329.302 47.3265 329.302 46.5697C329.302 46.0651 329.386 45.5605 329.638 45.1401H327.704V43.2059H342V45.1401H339.561V45.2242ZM336.954 45.2242H333.002C332.666 45.2242 332.497 45.3924 332.329 45.7287C332.161 46.0651 332.077 46.4015 332.077 46.7379C332.077 46.9901 332.161 47.2424 332.329 47.4947C333.002 47.3265 333.591 47.2424 334.095 47.2424C334.768 47.2424 335.273 47.4106 335.693 47.6629V50.2698C334.768 49.8493 334.095 49.6811 333.843 49.6811C333.17 49.6811 332.582 49.9334 331.993 50.438C331.404 50.9425 331.152 51.5312 331.152 52.204C331.152 52.9608 331.404 53.5495 331.993 54.1381C332.582 54.6427 333.254 54.895 333.927 54.895C334.516 54.895 335.104 54.7268 335.861 54.3063C336.618 53.9699 336.954 53.5495 336.954 53.129V45.2242Z" fill="#2E3192"/>
</svg>
